<?xml version="1.0" encoding="iso-8859-1"?>
<!-- Generator: Adobe Illustrator 19.0.0, SVG Export Plug-In . SVG Version: 6.00 Build 0)  -->
<svg version="1.1" id="seatbeltIcon" xmlns="http://www.w3.org/2000/svg" xmlns:xlink="http://www.w3.org/1999/xlink" x="0px" y="0px"
	 viewBox="0 0 512.001 512.001" style="enable-background:new 0 0 512.001 512.001;" xml:space="preserve">
<g>
	<g>
		<path d="M504.397,389.006c-31.326-26.343-66.046-46.927-102.638-61.75c-6.193-48.325-20.188-91.704-39.951-125.56L463.09,100.414
			c8.331-8.331,8.331-21.839,0-30.17s-21.839-8.331-30.17,0l-96.611,96.611c-6.9-7.426-14.212-13.911-21.892-19.346
			c16.56-15.565,26.917-37.654,26.917-62.176C341.334,38.202,303.132,0,256,0s-85.333,38.202-85.333,85.333
			c0,24.522,10.357,46.611,26.917,62.176c-44.515,31.505-76.746,98.288-87.239,178.934c-36.96,14.913-71.826,35.818-102.967,62.756
			c-8.911,7.708-9.886,21.18-2.178,30.091c7.708,8.911,21.18,9.886,30.091,2.178c21.95-18.987,46.027-34.583,71.483-46.822
			c-0.063,3.107-0.106,6.222-0.106,9.354c0,39.359,5.14,77.561,14.866,112.403C124.106,505.623,132.507,512,142.08,512h71.253
			c11.782,0,21.333-9.551,21.333-21.333v-76.495c11.844-11.642,30.823-11.642,42.667,0v76.495c0,11.782,9.551,21.333,21.333,21.333
			h71.253c9.573,0,17.974-6.377,20.548-15.598c9.726-34.841,14.866-73.044,14.866-112.403c0-2.868-0.036-5.721-0.089-8.568
			c25.364,12.16,49.495,27.563,71.692,46.229c9.017,7.583,22.475,6.42,30.058-2.597S513.415,396.589,504.397,389.006z
			 M356.173,312.019c-29.963-8.012-60.705-12.417-91.479-13.209l65.699-65.699C341.615,255.1,350.569,281.933,356.173,312.019z
			 M213.334,85.334c0-23.567,19.099-42.667,42.667-42.667s42.667,19.099,42.667,42.667S279.568,128,256,128
			S213.334,108.901,213.334,85.334z M256,170.667c17.643,0,34.859,9.531,50.136,26.36L200.768,302.396
			c-15.089,2.095-30.058,5.058-44.812,8.927C171.529,228.617,212.471,170.667,256,170.667z M362.667,384
			c0,29.67-3.225,58.522-9.344,85.333H320V413.91c0-11.142-4.425-21.837-12.307-29.72c-28.555-28.555-74.831-28.555-103.386,0
			C196.425,392.072,192,402.767,192,413.91v55.424h-33.323c-6.119-26.811-9.344-55.663-9.344-85.333
			c0-9.015,0.297-17.883,0.861-26.578c68.216-21.672,142.799-21.428,211.655,0.733C362.384,366.617,362.667,375.238,362.667,384z"/>
	</g>
</g>
<g>
</g>
<g>
</g>
<g>
</g>
<g>
</g>
<g>
</g>
<g>
</g>
<g>
</g>
<g>
</g>
<g>
</g>
<g>
</g>
<g>
</g>
<g>
</g>
<g>
</g>
<g>
</g>
<g>
</g>
</svg>
